<svg xmlns="http://www.w3.org/2000/svg" width="900" height="640" viewBox="0 0 900 640" role="img" aria-label="Doorstep Healthcare">
  <defs>
    <linearGradient id="g" x1="0" y1="0" x2="1" y2="1">
      <stop offset="0" stop-color="#2B5043"/><stop offset="1" stop-color="#4C7D6A"/>
    </linearGradient>
    <radialGradient id="r" cx="0.72" cy="0.24" r="0.8">
      <stop offset="0" stop-color="#C2543C" stop-opacity="0.32"/>
      <stop offset="1" stop-color="#C2543C" stop-opacity="0"/>
    </radialGradient>
    <pattern id="d" width="14" height="14" patternUnits="userSpaceOnUse">
      <circle cx="2" cy="2" r="1.1" fill="rgba(240,166,146,.13)"/>
    </pattern>
  </defs>
  <rect width="900" height="640" fill="url(#g)"/>
  <rect width="900" height="640" fill="url(#d)"/>
  <rect width="900" height="640" fill="url(#r)"/>
  <g stroke="rgba(240,166,146,.13)" fill="none" stroke-width="2">
    <circle cx="162" cy="537.6" r="192"/>
    <circle cx="774" cy="102.4" r="153.6"/>
  </g>
  <g transform="translate(341.2 179.2) scale(2.176)">
    <g fill="none" stroke="#F0A692" stroke-width="3.2" stroke-linecap="round" stroke-linejoin="round" opacity="0.85"><path d="M50 82S18 62 18 42a17 17 0 0 1 32-8 17 17 0 0 1 32 8c0 20-32 40-32 40z"/><path d="M30 48h11l5-10 8 20 5-10h11"/></g>
  </g>
  <g transform="translate(450 524.8)" text-anchor="middle" font-family="Georgia, 'Times New Roman', serif">
    <text y="0" fill="#F0A692" font-size="28.799999999999997" letter-spacing="3.84">DOORSTEP HEALTHCARE</text>
    <text y="35.2" fill="#F0A692" opacity=".55" font-size="17.92" font-family="ui-sans-serif, system-ui, sans-serif">Placeholder — replace with your field photo</text>
  </g>
</svg>