<svg xmlns="http://www.w3.org/2000/svg" width="900" height="640" viewBox="0 0 900 640" role="img" aria-label="Classroom Support">
  <defs>
    <linearGradient id="g" x1="0" y1="0" x2="1" y2="1">
      <stop offset="0" stop-color="#F3EFE6"/><stop offset="1" stop-color="#E8E0D0"/>
    </linearGradient>
    <radialGradient id="r" cx="0.72" cy="0.24" r="0.8">
      <stop offset="0" stop-color="#C2543C" stop-opacity="0.24"/>
      <stop offset="1" stop-color="#C2543C" stop-opacity="0"/>
    </radialGradient>
    <pattern id="d" width="14" height="14" patternUnits="userSpaceOnUse">
      <circle cx="2" cy="2" r="1.1" fill="rgba(43,80,67,.09)"/>
    </pattern>
  </defs>
  <rect width="900" height="640" fill="url(#g)"/>
  <rect width="900" height="640" fill="url(#d)"/>
  <rect width="900" height="640" fill="url(#r)"/>
  <g stroke="rgba(43,80,67,.09)" fill="none" stroke-width="2">
    <circle cx="162" cy="537.6" r="192"/>
    <circle cx="774" cy="102.4" r="153.6"/>
  </g>
  <g transform="translate(341.2 179.2) scale(2.176)">
    <g fill="none" stroke="#2B5043" stroke-width="3.2" stroke-linecap="round" stroke-linejoin="round" opacity="0.85"><path d="M12 24c14-7 26-7 38 2v52c-12-9-24-9-38-2z"/><path d="M88 24c-14-7-26-7-38 2v52c12-9 24-9 38-2z"/></g>
  </g>
  <g transform="translate(450 524.8)" text-anchor="middle" font-family="Georgia, 'Times New Roman', serif">
    <text y="0" fill="#2B5043" font-size="28.799999999999997" letter-spacing="3.84">CLASSROOM SUPPORT</text>
    <text y="35.2" fill="#2B5043" opacity=".55" font-size="17.92" font-family="ui-sans-serif, system-ui, sans-serif">Placeholder — replace with your field photo</text>
  </g>
</svg>